<?xml version="1.0" encoding="UTF-8"?>
<!DOCTYPE svg PUBLIC "-//W3C//DTD SVG 1.1//EN" "http://www.w3.org/Graphics/SVG/1.1/DTD/svg11.dtd">
<!-- Creator: CorelDRAW -->
<svg xmlns="http://www.w3.org/2000/svg" xml:space="preserve" width="6.82666in" height="6.82666in" style="shape-rendering:geometricPrecision; text-rendering:geometricPrecision; image-rendering:optimizeQuality; fill-rule:evenodd; clip-rule:evenodd"
viewBox="0 0 6.82666 6.82666"
 xmlns:xlink="http://www.w3.org/1999/xlink">
 <defs>
  <style type="text/css">
   <![CDATA[
    .fil2 {fill:none}
    .fil1 {fill:#333333;fill-rule:nonzero}
    .fil0 {fill:#B38E85;fill-rule:nonzero}
   ]]>
  </style>
 </defs>
 <g id="Layer_x0020_1">
  <metadata id="CorelCorpID_0Corel-Layer"/>
  <path class="fil0" d="M1.11263 3.67219c0.00161024,-0.0293386 -0.0208701,-0.0544331 -0.0502087,-0.0560433 -0.0293386,-0.00161024 -0.0544331,0.0208701 -0.0560433,0.0502087 -0.00285433,0.0494449 -0.00154724,0.0959803 0.00350394,0.139689 0.022685,0.196213 0.119232,0.338386 0.253752,0.434091 0.131437,0.0935118 0.298764,0.141382 0.467461,0.151126 0.0666142,0.00384646 0.133358,0.00179921 0.198059,-0.0056811 0.0292244,-0.00333465 0.0502087,-0.0297362 0.046874,-0.0589606 -0.00333465,-0.0292244 -0.0297362,-0.0502087 -0.0589606,-0.046874 -0.0592126,0.00684646 -0.119925,0.00874016 -0.180138,0.00526378 -0.149972,-0.00866142 -0.297508,-0.0503543 -0.411626,-0.131543 -0.111035,-0.0789961 -0.190764,-0.196697 -0.209587,-0.359508 -0.00441732,-0.0382205 -0.00556693,-0.0787953 -0.00308661,-0.121768z"/>
  <path class="fil0" d="M1.44169 3.40915c0.00161024,-0.0293386 -0.0208701,-0.0544331 -0.0502087,-0.0560433 -0.0293386,-0.00161024 -0.0544331,0.0208701 -0.0560433,0.0502087 -0.00331102,0.0573543 -0.00179528,0.111346 0.00406693,0.162063 0.0262402,0.226921 0.137866,0.391323 0.293386,0.501969 0.152437,0.108457 0.346689,0.163984 0.542646,0.175303 0.0774685,0.00447244 0.155122,0.00208661 0.230425,-0.00661811 0.0292244,-0.00333465 0.0502087,-0.0297362 0.046874,-0.0589606 -0.00333465,-0.0292244 -0.0297362,-0.0502087 -0.0589606,-0.046874 -0.069815,0.00807087 -0.141437,0.0103071 -0.212504,0.00620079 -0.177224,-0.0102362 -0.351697,-0.0595866 -0.486811,-0.15572 -0.132031,-0.093937 -0.226843,-0.233866 -0.24922,-0.427386 -0.00522835,-0.0452283 -0.00658661,-0.0932559 -0.00364961,-0.144142z"/>
  <path class="fil0" d="M1.9035 3.24734c0.00161024,-0.0293386 -0.0208701,-0.0544331 -0.0502087,-0.0560433 -0.0293386,-0.00161024 -0.0544331,0.0208701 -0.0560433,0.0502087 -0.00316535,0.0548268 -0.00171654,0.106445 0.00388976,0.154925 0.0251024,0.21711 0.131913,0.374413 0.280724,0.480287 0.145728,0.103681 0.331378,0.156764 0.51863,0.167579 0.0740039,0.00427165 0.148173,0.00199606 0.220094,-0.0063189 0.0292244,-0.00333465 0.0502087,-0.0297362 0.046874,-0.0589606 -0.00333465,-0.0292244 -0.0297362,-0.0502087 -0.0589606,-0.046874 -0.0664331,0.0076811 -0.134571,0.00980315 -0.202173,0.00590157 -0.168524,-0.00973228 -0.33439,-0.0566378 -0.462795,-0.147996 -0.125323,-0.0891654 -0.215319,-0.221992 -0.236559,-0.405705 -0.00497244,-0.0429961 -0.00626378,-0.0886457 -0.00347244,-0.137004z"/>
  <path class="fil0" d="M2.30888 2.95183c0.00161024,-0.0293386 -0.0208701,-0.0544331 -0.0502087,-0.0560433 -0.0293386,-0.00161024 -0.0544331,0.0208701 -0.0560433,0.0502087 -0.00355906,0.0616299 -0.00192913,0.119654 0.00437402,0.174161 0.0281575,0.243504 0.147921,0.419909 0.314783,0.538626 0.16378,0.116524 0.372579,0.176193 0.583252,0.188366 0.0833346,0.00481102 0.166886,0.00224803 0.247921,-0.00712205 0.0292244,-0.00333465 0.0502087,-0.0297362 0.046874,-0.0589606 -0.00333465,-0.0292244 -0.0297362,-0.0502087 -0.0589606,-0.046874 -0.0755512,0.00873622 -0.153067,0.0111457 -0.23,0.00670472 -0.191945,-0.0110906 -0.380957,-0.0645827 -0.527417,-0.168783 -0.143374,-0.102008 -0.246323,-0.253937 -0.270618,-0.464043 -0.00566929,-0.0490197 -0.00714173,-0.101079 -0.00395669,-0.15624z"/>
  <path class="fil0" d="M2.77827 2.7312c0.00161024,-0.0293386 -0.0208701,-0.0544331 -0.0502087,-0.0560433 -0.0293386,-0.00161024 -0.0544331,0.0208701 -0.0560433,0.0502087 -0.00355906,0.061626 -0.00192913,0.119646 0.00437008,0.17415 0.0281575,0.243508 0.147925,0.419917 0.314791,0.538638 0.163783,0.116531 0.372587,0.176197 0.583264,0.188366 0.0833307,0.00481102 0.166874,0.00224803 0.247909,-0.00712205 0.0292244,-0.00333465 0.0502087,-0.0297362 0.046874,-0.0589606 -0.00333465,-0.0292244 -0.0297362,-0.0502087 -0.0589606,-0.046874 -0.0755472,0.00873622 -0.153059,0.0111457 -0.229988,0.00670472 -0.191953,-0.0110866 -0.380969,-0.0645787 -0.527429,-0.168783 -0.143378,-0.102012 -0.246331,-0.253949 -0.270626,-0.464055 -0.00566535,-0.0490197 -0.0071378,-0.101071 -0.00395276,-0.156228z"/>
  <path class="fil0" d="M3.30963 2.40515c0.00126378,-0.0293386 -0.0214961,-0.0541535 -0.0508346,-0.0554173 -0.0293386,-0.00126378 -0.0541535,0.0214961 -0.0554173,0.0508346 -0.00470866,0.102319 -0.000153543,0.196654 0.0124173,0.283315 0.0409724,0.282433 0.166291,0.486134 0.334051,0.621961 0.167374,0.135516 0.37626,0.202476 0.585201,0.212098 0.0741654,0.00341339 0.148161,-0.000346457 0.220122,-0.0107874 0.0291063,-0.00414173 0.0493504,-0.0311024 0.0452087,-0.0602087 -0.00414173,-0.0291063 -0.0311024,-0.0493504 -0.0602087,-0.0452087 -0.0659843,0.00957087 -0.133413,0.0130394 -0.200539,0.00995276 -0.187508,-0.00863386 -0.374205,-0.0681102 -0.522705,-0.188343 -0.148118,-0.119925 -0.258988,-0.301327 -0.295713,-0.554465 -0.0117126,-0.080752 -0.0159646,-0.168571 -0.0115827,-0.263732z"/>
  <path class="fil0" d="M3.95348 2.41578c0.00713386,-0.0285315 -0.0102165,-0.0574488 -0.038748,-0.0645827 -0.0285315,-0.00713386 -0.0574488,0.0102165 -0.0645827,0.038748 -0.0149409,0.0597913 -0.0241378,0.117213 -0.0281142,0.172244 -0.0176457,0.244394 0.0672126,0.439972 0.209079,0.587693 0.139256,0.144992 0.333232,0.242469 0.537831,0.293598 0.080878,0.0202165 0.163555,0.0332402 0.24522,0.0391378 0.0293386,0.00206693 0.0548071,-0.0200394 0.056874,-0.049378 0.00206693,-0.0293386 -0.0200394,-0.0548071 -0.049378,-0.056874 -0.0755394,-0.00545276 -0.152028,-0.0175079 -0.226882,-0.0362165 -0.186669,-0.0466496 -0.362504,-0.134394 -0.486996,-0.264016 -0.121874,-0.126902 -0.194736,-0.295374 -0.179496,-0.506449 0.0035315,-0.0489094 0.0117756,-0.100209 0.0251929,-0.153906z"/>
  <path class="fil0" d="M4.55995 2.34112c0.0105827,-0.0273819 -0.00303543,-0.0581654 -0.0304173,-0.068748 -0.0273819,-0.0105827 -0.0581654,0.00303543 -0.068748,0.0304173 -0.0224843,0.058 -0.0387992,0.113756 -0.0494724,0.167228 -0.0479528,0.240272 0.0118583,0.444874 0.134197,0.609094 0.12011,0.161224 0.300492,0.282138 0.49722,0.358402 0.0782677,0.0303425 0.158606,0.0536063 0.238268,0.0695039 0.028878,0.00575197 0.0569567,-0.0129961 0.0627087,-0.041874 0.00575197,-0.028878 -0.0129961,-0.0569567 -0.041874,-0.0627087 -0.0749055,-0.0149488 -0.14937,-0.0364055 -0.220772,-0.0640866 -0.179303,-0.0695079 -0.342772,-0.178453 -0.450134,-0.322567 -0.105138,-0.14113 -0.156453,-0.31739 -0.115031,-0.524929 0.00972441,-0.0487165 0.0242598,-0.0986693 0.0440551,-0.149732z"/>
  <path class="fil0" d="M5.29369 2.4409c0.0173701,-0.0237008 0.0122402,-0.0570039 -0.0114606,-0.074374 -0.0237008,-0.0173701 -0.0570039,-0.0122402 -0.074374,0.0114606 -0.0366654,0.049815 -0.0669724,0.0993583 -0.0913898,0.148433 -0.109197,0.219445 -0.105039,0.432563 -0.0299567,0.622988 0.073748,0.187059 0.216252,0.350988 0.386224,0.476106 0.0673228,0.0495591 0.138768,0.0929921 0.211748,0.129307 0.0263465,0.0131142 0.0583425,0.00238583 0.0714567,-0.0239606 0.0131142,-0.0263465 0.00238583,-0.0583425 -0.0239606,-0.0714567 -0.0681299,-0.0339016 -0.134382,-0.074122 -0.196331,-0.119724 -0.154827,-0.113969 -0.284067,-0.26185 -0.349972,-0.42902 -0.0645827,-0.163791 -0.0680276,-0.347362 0.0262087,-0.536744 0.0220039,-0.0442244 0.0491339,-0.0886299 0.0818071,-0.133016z"/>
  <path class="fil1" d="M5.7825 4.01758c0.036126,0.0464803 0.103102,0.054874 0.149583,0.018748 0.0464803,-0.036126 0.054874,-0.103102 0.018748,-0.149583 -0.799587,-1.02752 -1.90602,-0.550524 -3.0538,-0.0557008 -0.655756,0.282705 -1.3257,0.571524 -1.93661,0.567354 -0.0586811,-0.000228346 -0.106441,0.0471535 -0.106669,0.105835 -0.000228346,0.0586811 0.0471535,0.106441 0.105835,0.106669 0.656528,0.00448031 1.34638,-0.292921 2.02161,-0.584024 1.0708,-0.461638 2.10302,-0.906638 2.8013,-0.00929921z"/>
  <rect class="fil2" width="6.82666" height="6.82666"/>
 </g>
</svg>
