<?xml version="1.0" encoding="UTF-8"?>
<!DOCTYPE svg PUBLIC "-//W3C//DTD SVG 1.1//EN" "http://www.w3.org/Graphics/SVG/1.1/DTD/svg11.dtd">
<!-- Creator: CorelDRAW -->
<svg xmlns="http://www.w3.org/2000/svg" xml:space="preserve" width="6.82666in" height="6.82666in" style="shape-rendering:geometricPrecision; text-rendering:geometricPrecision; image-rendering:optimizeQuality; fill-rule:evenodd; clip-rule:evenodd"
viewBox="0 0 6.82666 6.82666"
 xmlns:xlink="http://www.w3.org/1999/xlink">
 <defs>
  <style type="text/css">
   <![CDATA[
    .fil1 {fill:none}
    .fil4 {fill:#AED581}
    .fil2 {fill:#FFD3B3}
    .fil3 {fill:#FFEDDF}
    .fil0 {fill:#333333;fill-rule:nonzero}
   ]]>
  </style>
 </defs>
 <g id="Layer_x0020_1">
  <metadata id="CorelCorpID_0Corel-Layer"/>
  <path class="fil0" d="M3.41333 0.89726c0.69478,0 1.3238,0.281626 1.77912,0.736949 0.455323,0.455323 0.736949,1.08434 0.736949,1.77912 0,0.69478 -0.281626,1.3238 -0.736949,1.77912 -0.455323,0.455323 -1.08434,0.736949 -1.77912,0.736949 -0.69478,0 -1.3238,-0.281626 -1.77912,-0.736949 -0.455323,-0.455323 -0.736949,-1.08434 -0.736949,-1.77912 0,-0.69478 0.281626,-1.3238 0.736949,-1.77912 0.455323,-0.455323 1.08434,-0.736949 1.77912,-0.736949zm1.62829 0.887783c-0.416705,-0.416705 -0.992394,-0.674445 -1.62829,-0.674445 -0.635894,0 -1.21158,0.25774 -1.62829,0.674445 -0.416705,0.416705 -0.674445,0.992394 -0.674445,1.62829 0,0.635894 0.25774,1.21158 0.674445,1.62829 0.416705,0.416705 0.992394,0.674445 1.62829,0.674445 0.635894,0 1.21158,-0.25774 1.62829,-0.674445 0.416705,-0.416705 0.674445,-0.992394 0.674445,-1.62829 0,-0.635894 -0.25774,-1.21158 -0.674445,-1.62829z"/>
  <path class="fil0" d="M3.41333 1.54667c0.515457,0 0.98213,0.208941 1.31993,0.546736 0.337795,0.337799 0.546736,0.804472 0.546736,1.31993 0,0.515457 -0.208941,0.98213 -0.546736,1.31993 -0.337799,0.337795 -0.804472,0.546736 -1.31993,0.546736 -0.515457,0 -0.98213,-0.208941 -1.31993,-0.546736 -0.337795,-0.337799 -0.546736,-0.804472 -0.546736,-1.31993 0,-0.515457 0.208941,-0.98213 0.546736,-1.31993 0.337799,-0.337795 0.804472,-0.546736 1.31993,-0.546736zm1.24451 0.622154c-0.318492,-0.318488 -0.758496,-0.515484 -1.24451,-0.515484 -0.486016,0 -0.92602,0.196996 -1.24451,0.515484 -0.318488,0.318492 -0.515484,0.758496 -0.515484,1.24451 0,0.486016 0.196996,0.92602 0.515484,1.24451 0.318492,0.318488 0.758496,0.515484 1.24451,0.515484 0.486016,0 0.92602,-0.196996 1.24451,-0.515484 0.318488,-0.318492 0.515484,-0.758496 0.515484,-1.24451 0,-0.486016 -0.196996,-0.92602 -0.515484,-1.24451z"/>
  <path class="fil0" d="M3.46667 1.6082c0,-0.0294528 -0.0238819,-0.0533346 -0.0533346,-0.0533346 -0.0294528,0 -0.0533346,0.0238819 -0.0533346,0.0533346l0 3.61027c0,0.0294528 0.0238819,0.0533346 0.0533346,0.0533346 0.0294528,0 0.0533346,-0.0238819 0.0533346,-0.0533346l0 -3.61027z"/>
  <path class="fil0" d="M3.89333 2.08c0,-0.0458504 -0.0543622,-0.0703189 -0.0887165,-0.0399055 -0.0114409,0.0101299 -0.0179528,0.024622 -0.0179528,0.0399055l0 0.106665c0,0.0458504 0.0543622,0.0703189 0.0887165,0.0399055 0.0114409,-0.0101299 0.0179528,-0.024622 0.0179528,-0.0399055l0 -0.106665zm-0.106669 2.66663c0,0.0458504 0.0543622,0.0703189 0.0887165,0.0399055 0.0114409,-0.0101299 0.0179528,-0.024622 0.0179528,-0.0399055l0 -0.106665c0,-0.0458504 -0.0543622,-0.0703189 -0.0887165,-0.0399055 -0.0114409,0.0101299 -0.0179528,0.024622 -0.0179528,0.0399055l0 0.106665zm0 -0.426661c0,0.0458504 0.0543622,0.0703189 0.0887165,0.0399055 0.0114409,-0.0101299 0.0179528,-0.024622 0.0179528,-0.0399055l0 -0.106665c0,-0.0458504 -0.0543622,-0.0703189 -0.0887165,-0.0399055 -0.0114409,0.0101299 -0.0179528,0.024622 -0.0179528,0.0399055l0 0.106665zm0 -0.426661c0,0.0458504 0.0543622,0.0703189 0.0887165,0.0399055 0.0114409,-0.0101299 0.0179528,-0.024622 0.0179528,-0.0399055l0 -0.106665c0,-0.0458504 -0.0543622,-0.0703189 -0.0887165,-0.0399055 -0.0114409,0.0101299 -0.0179528,0.024622 -0.0179528,0.0399055l0 0.106665zm0 -0.426661c0,0.0458504 0.0543622,0.0703189 0.0887165,0.0399055 0.0114409,-0.0101299 0.0179528,-0.024622 0.0179528,-0.0399055l0 -0.106665c0,-0.0458504 -0.0543622,-0.0703189 -0.0887165,-0.0399055 -0.0114409,0.0101299 -0.0179528,0.024622 -0.0179528,0.0399055l0 0.106665zm0 -0.426661c0,0.0458504 0.0543622,0.0703189 0.0887165,0.0399055 0.0114409,-0.0101299 0.0179528,-0.024622 0.0179528,-0.0399055l0 -0.106665c0,-0.0458504 -0.0543622,-0.0703189 -0.0887165,-0.0399055 -0.0114409,0.0101299 -0.0179528,0.024622 -0.0179528,0.0399055l0 0.106665zm0 -0.426661c0,0.0458504 0.0543622,0.0703189 0.0887165,0.0399055 0.0114409,-0.0101299 0.0179528,-0.024622 0.0179528,-0.0399055l0 -0.106665c0,-0.0458504 -0.0543622,-0.0703189 -0.0887165,-0.0399055 -0.0114409,0.0101299 -0.0179528,0.024622 -0.0179528,0.0399055l0 0.106665z"/>
  <path class="fil0" d="M4.32 2.4507c0,-0.0458504 -0.0543622,-0.0703189 -0.0887165,-0.0399055 -0.0114409,0.0101299 -0.0179528,0.024622 -0.0179528,0.0399055l0 0.106665c0,0.0458504 0.0543622,0.0703189 0.0887165,0.0399055 0.0114409,-0.0101299 0.0179528,-0.024622 0.0179528,-0.0399055l0 -0.106665zm-0.106669 1.81331c0,0.0458504 0.0543622,0.0703189 0.0887165,0.0399055 0.0114409,-0.0101299 0.0179528,-0.024622 0.0179528,-0.0399055l0 -0.106665c0,-0.0458504 -0.0543622,-0.0703189 -0.0887165,-0.0399055 -0.0114409,0.0101299 -0.0179528,0.024622 -0.0179528,0.0399055l0 0.106665zm0 -0.426661c0,0.0458504 0.0543622,0.0703189 0.0887165,0.0399055 0.0114409,-0.0101299 0.0179528,-0.024622 0.0179528,-0.0399055l0 -0.106661c0,-0.0458504 -0.0543622,-0.0703189 -0.0887165,-0.0399055 -0.0114409,0.0101299 -0.0179528,0.024622 -0.0179528,0.0399055l0 0.106661zm0 -0.426657c0,0.0458504 0.0543622,0.0703189 0.0887165,0.0399055 0.0114409,-0.0101299 0.0179528,-0.024622 0.0179528,-0.0399055l0 -0.106665c0,-0.0458504 -0.0543622,-0.0703189 -0.0887165,-0.0399055 -0.0114409,0.0101299 -0.0179528,0.024622 -0.0179528,0.0399055l0 0.106665zm0 -0.426661c0,0.0458504 0.0543622,0.0703189 0.0887165,0.0399055 0.0114409,-0.0101299 0.0179528,-0.024622 0.0179528,-0.0399055l0 -0.106665c0,-0.0458504 -0.0543622,-0.0703189 -0.0887165,-0.0399055 -0.0114409,0.0101299 -0.0179528,0.024622 -0.0179528,0.0399055l0 0.106665z"/>
  <path class="fil0" d="M4.74667 2.64202c0,-0.0458504 -0.0543622,-0.0703189 -0.0887165,-0.0399055 -0.0114409,0.0101299 -0.0179528,0.024622 -0.0179528,0.0399055l0 0.106665c0,0.0458504 0.0543622,0.0703189 0.0887165,0.0399055 0.0114409,-0.0101299 0.0179528,-0.024622 0.0179528,-0.0399055l0 -0.106665zm-0.106669 1.38665c0,0.0458504 0.0543622,0.0703189 0.0887165,0.0399055 0.0114409,-0.0101299 0.0179528,-0.024622 0.0179528,-0.0399055l0 -0.106665c0,-0.0458504 -0.0543622,-0.0703189 -0.0887165,-0.0399055 -0.0114409,0.0101299 -0.0179528,0.024622 -0.0179528,0.0399055l0 0.106665zm0 -0.426661c0,0.0458504 0.0543622,0.0703189 0.0887165,0.0399055 0.0114409,-0.0101299 0.0179528,-0.024622 0.0179528,-0.0399055l0 -0.106665c0,-0.0458504 -0.0543622,-0.0703189 -0.0887165,-0.0399055 -0.0114409,0.0101299 -0.0179528,0.024622 -0.0179528,0.0399055l0 0.106665zm0 -0.426661c0,0.0458504 0.0543622,0.0703189 0.0887165,0.0399055 0.0114409,-0.0101299 0.0179528,-0.024622 0.0179528,-0.0399055l0 -0.106665c0,-0.0458504 -0.0543622,-0.0703189 -0.0887165,-0.0399055 -0.0114409,0.0101299 -0.0179528,0.024622 -0.0179528,0.0399055l0 0.106665z"/>
  <rect class="fil1" width="6.82666" height="6.82666"/>
  <path class="fil2" d="M3.36 1.65413c-0.464823,0.0138346 -0.884378,0.207898 -1.19118,0.514693 -0.318488,0.318492 -0.515484,0.758496 -0.515484,1.24451 0,0.486016 0.196996,0.92602 0.515484,1.24451 0.306799,0.306795 0.726354,0.500858 1.19118,0.514693l0 -3.51841z"/>
  <path class="fil3" d="M3.46667 1.65413l0 3.51841c0.464823,-0.0138346 0.884378,-0.207898 1.19118,-0.514693 0.318488,-0.318492 0.515484,-0.758496 0.515484,-1.24451 0,-0.486016 -0.196996,-0.92602 -0.515484,-1.24451 -0.306799,-0.306795 -0.726354,-0.500858 -1.19118,-0.514693zm0.32 0.532535l0 -0.106665c0,-0.0152835 0.00651181,-0.0297756 0.0179528,-0.0399055 0.0343543,-0.0304134 0.0887165,-0.00594488 0.0887165,0.0399055l0 0.106665c0,0.0152835 -0.00651181,0.0297756 -0.0179528,0.0399055 -0.0343543,0.0304134 -0.0887165,0.00594488 -0.0887165,-0.0399055zm0 1.17332c0,-0.0152835 0.00651181,-0.0297756 0.0179528,-0.0399055 0.0343543,-0.0304134 0.0887165,-0.00594488 0.0887165,0.0399055l0 0.106665c0,0.0152835 -0.00651181,0.0297756 -0.0179528,0.0399055 -0.0343543,0.0304134 -0.0887165,0.00594488 -0.0887165,-0.0399055l0 -0.106665zm0.0179528 0.386756c0.0343543,-0.0304134 0.0887165,-0.00594488 0.0887165,0.0399055l0 0.106665c0,0.0152835 -0.00651181,0.0297756 -0.0179528,0.0399055 -0.0343543,0.0304134 -0.0887165,0.00594488 -0.0887165,-0.0399055l0 -0.106665c0,-0.0152835 0.00651181,-0.0297756 0.0179528,-0.0399055zm0 0.426661c0.0343543,-0.0304134 0.0887165,-0.00594488 0.0887165,0.0399055l0 0.106665c0,0.0152835 -0.00651181,0.0297756 -0.0179528,0.0399055 -0.0343543,0.0304134 -0.0887165,0.00594488 -0.0887165,-0.0399055l0 -0.106665c0,-0.0152835 0.00651181,-0.0297756 0.0179528,-0.0399055zm0 0.426661c0.0343543,-0.0304134 0.0887165,-0.00594488 0.0887165,0.0399055l0 0.106665c0,0.0152835 -0.00651181,0.0297756 -0.0179528,0.0399055 -0.0343543,0.0304134 -0.0887165,0.00594488 -0.0887165,-0.0399055l0 -0.106665c0,-0.0152835 0.00651181,-0.0297756 0.0179528,-0.0399055zm-0.0179528 -1.66674c0,-0.0152835 0.00651181,-0.0297756 0.0179528,-0.0399055 0.0343543,-0.0304134 0.0887165,-0.00594488 0.0887165,0.0399055l0 0.106665c0,0.0152835 -0.00651181,0.0297756 -0.0179528,0.0399055 -0.0343543,0.0304134 -0.0887165,0.00594488 -0.0887165,-0.0399055l0 -0.106665zm0 -0.426661c0,-0.0152835 0.00651181,-0.0297756 0.0179528,-0.0399055 0.0343543,-0.0304134 0.0887165,-0.00594488 0.0887165,0.0399055l0 0.106665c0,0.0152835 -0.00651181,0.0297756 -0.0179528,0.0399055 -0.0343543,0.0304134 -0.0887165,0.00594488 -0.0887165,-0.0399055l0 -0.106665zm0.853331 0.242024l0 -0.106665c0,-0.0152835 0.00651181,-0.0297756 0.0179528,-0.0399055 0.0343543,-0.0304134 0.0887165,-0.00594488 0.0887165,0.0399055l0 0.106665c0,0.0152835 -0.00651181,0.0297756 -0.0179528,0.0399055 -0.0343543,0.0304134 -0.0887165,0.00594488 -0.0887165,-0.0399055zm0 1.27998l0 -0.106665c0,-0.0152835 0.00651181,-0.0297756 0.0179528,-0.0399055 0.0343543,-0.0304134 0.0887165,-0.00594488 0.0887165,0.0399055l0 0.106665c0,0.0152835 -0.00651181,0.0297756 -0.0179528,0.0399055 -0.0343543,0.0304134 -0.0887165,0.00594488 -0.0887165,-0.0399055zm-0.408713 -1.19121c0.0343543,-0.0304134 0.0887165,-0.00594488 0.0887165,0.0399055l0 0.106665c0,0.0152835 -0.00651181,0.0297756 -0.0179528,0.0399055 -0.0343543,0.0304134 -0.0887165,0.00594488 -0.0887165,-0.0399055l0 -0.106665c0,-0.0152835 0.00651181,-0.0297756 0.0179528,-0.0399055zm0.408713 0.764547l0 -0.106665c0,-0.0152835 0.00651181,-0.0297756 0.0179528,-0.0399055 0.0343543,-0.0304134 0.0887165,-0.00594488 0.0887165,0.0399055l0 0.106665c0,0.0152835 -0.00651181,0.0297756 -0.0179528,0.0399055 -0.0343543,0.0304134 -0.0887165,0.00594488 -0.0887165,-0.0399055zm-0.426665 -1.04464l0 -0.106665c0,-0.0152835 0.00651181,-0.0297756 0.0179528,-0.0399055 0.0343543,-0.0304134 0.0887165,-0.00594488 0.0887165,0.0399055l0 0.106665c0,0.0152835 -0.00651181,0.0297756 -0.0179528,0.0399055 -0.0343543,0.0304134 -0.0887165,0.00594488 -0.0887165,-0.0399055zm0.426665 0.617976l0 -0.106665c0,-0.0152835 0.00651181,-0.0297756 0.0179528,-0.0399055 0.0343543,-0.0304134 0.0887165,-0.00594488 0.0887165,0.0399055l0 0.106665c0,0.0152835 -0.00651181,0.0297756 -0.0179528,0.0399055 -0.0343543,0.0304134 -0.0887165,0.00594488 -0.0887165,-0.0399055zm-0.426665 1.08867l0 -0.106665c0,-0.0152835 0.00651181,-0.0297756 0.0179528,-0.0399055 0.0343543,-0.0304134 0.0887165,-0.00594488 0.0887165,0.0399055l0 0.106665c0,0.0152835 -0.00651181,0.0297756 -0.0179528,0.0399055 -0.0343543,0.0304134 -0.0887165,0.00594488 -0.0887165,-0.0399055zm0 -0.426661l0 -0.106661c0,-0.0152835 0.00651181,-0.0297756 0.0179528,-0.0399055 0.0343543,-0.0304134 0.0887165,-0.00594488 0.0887165,0.0399055l0 0.106661c0,0.0152835 -0.00651181,0.0297756 -0.0179528,0.0399055 -0.0343543,0.0304134 -0.0887165,0.00594488 -0.0887165,-0.0399055zm0 -0.426657l0 -0.106665c0,-0.0152835 0.00651181,-0.0297756 0.0179528,-0.0399055 0.0343543,-0.0304134 0.0887165,-0.00594488 0.0887165,0.0399055l0 0.106665c0,0.0152835 -0.00651181,0.0297756 -0.0179528,0.0399055 -0.0343543,0.0304134 -0.0887165,0.00594488 -0.0887165,-0.0399055z"/>
  <path class="fil4" d="M3.41333 1.54667c0.515457,0 0.98213,0.208941 1.31993,0.546736 0.337795,0.337799 0.546736,0.804472 0.546736,1.31993 0,0.515457 -0.208941,0.98213 -0.546736,1.31993 -0.337799,0.337795 -0.804472,0.546736 -1.31993,0.546736 -0.515457,0 -0.98213,-0.208941 -1.31993,-0.546736 -0.337795,-0.337799 -0.546736,-0.804472 -0.546736,-1.31993 0,-0.515457 0.208941,-0.98213 0.546736,-1.31993 0.337799,-0.337795 0.804472,-0.546736 1.31993,-0.546736zm1.62829 0.238378c-0.416705,-0.416705 -0.992394,-0.674445 -1.62829,-0.674445 -0.635894,0 -1.21158,0.25774 -1.62829,0.674445 -0.416705,0.416705 -0.674445,0.992394 -0.674445,1.62829 0,0.635894 0.25774,1.21158 0.674445,1.62829 0.416705,0.416705 0.992394,0.674445 1.62829,0.674445 0.635894,0 1.21158,-0.25774 1.62829,-0.674445 0.416705,-0.416705 0.674445,-0.992394 0.674445,-1.62829 0,-0.635894 -0.25774,-1.21158 -0.674445,-1.62829z"/>
 </g>
</svg>
